<svg width="221" height="17" viewBox="0 0 221 17" fill="none" xmlns="http://www.w3.org/2000/svg">
<path d="M4.72 16V4.2H0.08V2H11.96V4.2H7.32V16H4.72ZM19.2848 16V13.84L19.1448 13.38V9.6C19.1448 8.86667 18.9248 8.3 18.4848 7.9C18.0448 7.48667 17.3782 7.28 16.4848 7.28C15.8848 7.28 15.2915 7.37333 14.7048 7.56C14.1315 7.74667 13.6448 8.00667 13.2448 8.34L12.2648 6.52C12.8382 6.08 13.5182 5.75333 14.3048 5.54C15.1048 5.31333 15.9315 5.2 16.7848 5.2C18.3315 5.2 19.5248 5.57333 20.3648 6.32C21.2182 7.05333 21.6448 8.19333 21.6448 9.74V16H19.2848ZM15.9248 16.14C15.1248 16.14 14.4248 16.0067 13.8248 15.74C13.2248 15.46 12.7582 15.08 12.4248 14.6C12.1048 14.1067 11.9448 13.5533 11.9448 12.94C11.9448 12.34 12.0848 11.8 12.3648 11.32C12.6582 10.84 13.1315 10.46 13.7848 10.18C14.4382 9.9 15.3048 9.76 16.3848 9.76H19.4848V11.42H16.5648C15.7115 11.42 15.1382 11.56 14.8448 11.84C14.5515 12.1067 14.4048 12.44 14.4048 12.84C14.4048 13.2933 14.5848 13.6533 14.9448 13.92C15.3048 14.1867 15.8048 14.32 16.4448 14.32C17.0582 14.32 17.6048 14.18 18.0848 13.9C18.5782 13.62 18.9315 13.2067 19.1448 12.66L19.5648 14.16C19.3248 14.7867 18.8915 15.2733 18.2648 15.62C17.6515 15.9667 16.8715 16.14 15.9248 16.14ZM24.4533 16V5.32H26.9533V16H24.4533ZM25.7133 3.56C25.2466 3.56 24.8599 3.41333 24.5533 3.12C24.2599 2.82667 24.1133 2.47333 24.1133 2.06C24.1133 1.63333 24.2599 1.28 24.5533 0.999999C24.8599 0.706666 25.2466 0.56 25.7133 0.56C26.1799 0.56 26.5599 0.699999 26.8533 0.979999C27.1599 1.24667 27.3133 1.58667 27.3133 2C27.3133 2.44 27.1666 2.81333 26.8733 3.12C26.5799 3.41333 26.1933 3.56 25.7133 3.56ZM29.8345 16V1.16H32.3345V16H29.8345ZM40.0158 16.14C38.9224 16.14 37.9491 15.9067 37.0958 15.44C36.2424 14.96 35.5691 14.3067 35.0758 13.48C34.5824 12.6533 34.3358 11.7133 34.3358 10.66C34.3358 9.59333 34.5824 8.65333 35.0758 7.84C35.5691 7.01333 36.2424 6.36667 37.0958 5.9C37.9491 5.43333 38.9224 5.2 40.0158 5.2C41.1225 5.2 42.1024 5.43333 42.9558 5.9C43.8225 6.36667 44.4958 7.00667 44.9758 7.82C45.4691 8.63333 45.7158 9.58 45.7158 10.66C45.7158 11.7133 45.4691 12.6533 44.9758 13.48C44.4958 14.3067 43.8225 14.96 42.9558 15.44C42.1024 15.9067 41.1225 16.14 40.0158 16.14ZM40.0158 14C40.6291 14 41.1758 13.8667 41.6558 13.6C42.1358 13.3333 42.5091 12.9467 42.7758 12.44C43.0558 11.9333 43.1958 11.34 43.1958 10.66C43.1958 9.96667 43.0558 9.37333 42.7758 8.88C42.5091 8.37333 42.1358 7.98667 41.6558 7.72C41.1758 7.45333 40.6358 7.32 40.0358 7.32C39.4224 7.32 38.8758 7.45333 38.3958 7.72C37.9291 7.98667 37.5558 8.37333 37.2758 8.88C36.9958 9.37333 36.8558 9.96667 36.8558 10.66C36.8558 11.34 36.9958 11.9333 37.2758 12.44C37.5558 12.9467 37.9291 13.3333 38.3958 13.6C38.8758 13.8667 39.4158 14 40.0158 14ZM47.7064 16V5.32H50.0864V8.26L49.8064 7.4C50.1264 6.68 50.6264 6.13333 51.3064 5.76C51.9997 5.38667 52.8597 5.2 53.8864 5.2V7.58C53.7797 7.55333 53.6797 7.54 53.5864 7.54C53.4931 7.52667 53.3997 7.52 53.3064 7.52C52.3597 7.52 51.6064 7.8 51.0464 8.36C50.4864 8.90667 50.2064 9.72667 50.2064 10.82V16H47.7064ZM55.0086 11.48V9.4H60.5086V11.48H55.0086ZM63.0839 16V2H65.2239L71.3439 12.22H70.2239L76.2439 2H78.3839L78.4039 16H75.9439L75.9239 5.86H76.4439L71.3239 14.4H70.1639L64.9639 5.86H65.5639V16H63.0839ZM88.1255 16V13.84L87.9855 13.38V9.6C87.9855 8.86667 87.7655 8.3 87.3255 7.9C86.8855 7.48667 86.2188 7.28 85.3255 7.28C84.7255 7.28 84.1321 7.37333 83.5455 7.56C82.9721 7.74667 82.4855 8.00667 82.0855 8.34L81.1055 6.52C81.6788 6.08 82.3588 5.75333 83.1455 5.54C83.9455 5.31333 84.7721 5.2 85.6255 5.2C87.1721 5.2 88.3655 5.57333 89.2055 6.32C90.0588 7.05333 90.4855 8.19333 90.4855 9.74V16H88.1255ZM84.7655 16.14C83.9655 16.14 83.2655 16.0067 82.6655 15.74C82.0655 15.46 81.5988 15.08 81.2655 14.6C80.9455 14.1067 80.7855 13.5533 80.7855 12.94C80.7855 12.34 80.9255 11.8 81.2055 11.32C81.4988 10.84 81.9721 10.46 82.6255 10.18C83.2788 9.9 84.1455 9.76 85.2255 9.76H88.3255V11.42H85.4055C84.5521 11.42 83.9788 11.56 83.6855 11.84C83.3921 12.1067 83.2455 12.44 83.2455 12.84C83.2455 13.2933 83.4255 13.6533 83.7855 13.92C84.1455 14.1867 84.6455 14.32 85.2855 14.32C85.8988 14.32 86.4455 14.18 86.9255 13.9C87.4188 13.62 87.7721 13.2067 87.9855 12.66L88.4055 14.16C88.1655 14.7867 87.7321 15.2733 87.1055 15.62C86.4921 15.9667 85.7121 16.14 84.7655 16.14ZM97.8334 16.14C96.8068 16.14 95.8801 15.9133 95.0534 15.46C94.2401 14.9933 93.6001 14.3533 93.1334 13.54C92.6668 12.7267 92.4334 11.7667 92.4334 10.66C92.4334 9.55333 92.6668 8.59333 93.1334 7.78C93.6001 6.96667 94.2401 6.33333 95.0534 5.88C95.8801 5.42667 96.8068 5.2 97.8334 5.2C98.7268 5.2 99.5268 5.4 100.233 5.8C100.94 6.18667 101.5 6.78 101.913 7.58C102.327 8.38 102.533 9.40667 102.533 10.66C102.533 11.9 102.333 12.9267 101.933 13.74C101.533 14.54 100.98 15.14 100.273 15.54C99.5668 15.94 98.7534 16.14 97.8334 16.14ZM98.1334 14C98.7334 14 99.2668 13.8667 99.7334 13.6C100.213 13.3333 100.593 12.9467 100.873 12.44C101.167 11.9333 101.313 11.34 101.313 10.66C101.313 9.96667 101.167 9.37333 100.873 8.88C100.593 8.37333 100.213 7.98667 99.7334 7.72C99.2668 7.45333 98.7334 7.32 98.1334 7.32C97.5334 7.32 96.9934 7.45333 96.5134 7.72C96.0468 7.98667 95.6668 8.37333 95.3734 8.88C95.0934 9.37333 94.9534 9.96667 94.9534 10.66C94.9534 11.34 95.0934 11.9333 95.3734 12.44C95.6668 12.9467 96.0468 13.3333 96.5134 13.6C96.9934 13.8667 97.5334 14 98.1334 14ZM101.373 16V13.48L101.473 10.64L101.273 7.8V1.16H103.753V16H101.373ZM111.664 16.14C110.477 16.14 109.437 15.9067 108.544 15.44C107.664 14.96 106.977 14.3067 106.484 13.48C106.004 12.6533 105.764 11.7133 105.764 10.66C105.764 9.59333 105.997 8.65333 106.464 7.84C106.944 7.01333 107.597 6.36667 108.424 5.9C109.264 5.43333 110.217 5.2 111.284 5.2C112.324 5.2 113.251 5.42667 114.064 5.88C114.877 6.33333 115.517 6.97333 115.984 7.8C116.451 8.62667 116.684 9.6 116.684 10.72C116.684 10.8267 116.677 10.9467 116.664 11.08C116.664 11.2133 116.657 11.34 116.644 11.46H107.744V9.8H115.324L114.344 10.32C114.357 9.70667 114.231 9.16667 113.964 8.7C113.697 8.23333 113.331 7.86667 112.864 7.6C112.411 7.33333 111.884 7.2 111.284 7.2C110.671 7.2 110.131 7.33333 109.664 7.6C109.211 7.86667 108.851 8.24 108.584 8.72C108.331 9.18667 108.204 9.74 108.204 10.38V10.78C108.204 11.42 108.351 11.9867 108.644 12.48C108.937 12.9733 109.351 13.3533 109.884 13.62C110.417 13.8867 111.031 14.02 111.724 14.02C112.324 14.02 112.864 13.9267 113.344 13.74C113.824 13.5533 114.251 13.26 114.624 12.86L115.964 14.4C115.484 14.96 114.877 15.3933 114.144 15.7C113.424 15.9933 112.597 16.14 111.664 16.14ZM124.053 16V2H126.653V16H124.053ZM133.819 16.14C132.646 16.14 131.739 15.84 131.099 15.24C130.459 14.6267 130.139 13.7267 130.139 12.54V2.96H132.639V12.48C132.639 12.9867 132.766 13.38 133.019 13.66C133.286 13.94 133.653 14.08 134.119 14.08C134.679 14.08 135.146 13.9333 135.519 13.64L136.219 15.42C135.926 15.66 135.566 15.84 135.139 15.96C134.713 16.08 134.273 16.14 133.819 16.14ZM128.379 7.4V5.4H135.499V7.4H128.379ZM137.876 16V5.32H140.376V16H137.876ZM139.136 3.56C138.669 3.56 138.283 3.41333 137.976 3.12C137.683 2.82667 137.536 2.47333 137.536 2.06C137.536 1.63333 137.683 1.28 137.976 0.999999C138.283 0.706666 138.669 0.56 139.136 0.56C139.603 0.56 139.983 0.699999 140.276 0.979999C140.583 1.24667 140.736 1.58667 140.736 2C140.736 2.44 140.589 2.81333 140.296 3.12C140.003 3.41333 139.616 3.56 139.136 3.56ZM149.317 5.2C150.171 5.2 150.931 5.36667 151.597 5.7C152.277 6.03333 152.811 6.54667 153.197 7.24C153.584 7.92 153.777 8.8 153.777 9.88V16H151.277V10.2C151.277 9.25333 151.051 8.54667 150.597 8.08C150.157 7.61333 149.537 7.38 148.737 7.38C148.151 7.38 147.631 7.5 147.177 7.74C146.724 7.98 146.371 8.34 146.117 8.82C145.877 9.28667 145.757 9.88 145.757 10.6V16H143.257V5.32H145.637V8.2L145.217 7.32C145.591 6.64 146.131 6.12 146.837 5.76C147.557 5.38667 148.384 5.2 149.317 5.2ZM161.588 16.14C160.401 16.14 159.361 15.9067 158.468 15.44C157.588 14.96 156.901 14.3067 156.408 13.48C155.928 12.6533 155.688 11.7133 155.688 10.66C155.688 9.59333 155.921 8.65333 156.388 7.84C156.868 7.01333 157.521 6.36667 158.348 5.9C159.188 5.43333 160.141 5.2 161.208 5.2C162.248 5.2 163.175 5.42667 163.988 5.88C164.801 6.33333 165.441 6.97333 165.908 7.8C166.375 8.62667 166.608 9.6 166.608 10.72C166.608 10.8267 166.601 10.9467 166.588 11.08C166.588 11.2133 166.581 11.34 166.568 11.46H157.668V9.8H165.248L164.268 10.32C164.281 9.70667 164.155 9.16667 163.888 8.7C163.621 8.23333 163.255 7.86667 162.788 7.6C162.335 7.33333 161.808 7.2 161.208 7.2C160.595 7.2 160.055 7.33333 159.588 7.6C159.135 7.86667 158.775 8.24 158.508 8.72C158.255 9.18667 158.128 9.74 158.128 10.38V10.78C158.128 11.42 158.275 11.9867 158.568 12.48C158.861 12.9733 159.275 13.3533 159.808 13.62C160.341 13.8867 160.955 14.02 161.648 14.02C162.248 14.02 162.788 13.9267 163.268 13.74C163.748 13.5533 164.175 13.26 164.548 12.86L165.888 14.4C165.408 14.96 164.801 15.3933 164.068 15.7C163.348 15.9933 162.521 16.14 161.588 16.14ZM168.61 16V5.32H170.99V8.26L170.71 7.4C171.03 6.68 171.53 6.13333 172.21 5.76C172.903 5.38667 173.763 5.2 174.79 5.2V7.58C174.683 7.55333 174.583 7.54 174.49 7.54C174.396 7.52667 174.303 7.52 174.21 7.52C173.263 7.52 172.51 7.8 171.95 8.36C171.39 8.90667 171.11 9.72667 171.11 10.82V16H168.61ZM182.329 16V13.84L182.189 13.38V9.6C182.189 8.86667 181.969 8.3 181.529 7.9C181.089 7.48667 180.422 7.28 179.529 7.28C178.929 7.28 178.335 7.37333 177.749 7.56C177.175 7.74667 176.689 8.00667 176.289 8.34L175.309 6.52C175.882 6.08 176.562 5.75333 177.349 5.54C178.149 5.31333 178.975 5.2 179.829 5.2C181.375 5.2 182.569 5.57333 183.409 6.32C184.262 7.05333 184.689 8.19333 184.689 9.74V16H182.329ZM178.969 16.14C178.169 16.14 177.469 16.0067 176.869 15.74C176.269 15.46 175.802 15.08 175.469 14.6C175.149 14.1067 174.989 13.5533 174.989 12.94C174.989 12.34 175.129 11.8 175.409 11.32C175.702 10.84 176.175 10.46 176.829 10.18C177.482 9.9 178.349 9.76 179.429 9.76H182.529V11.42H179.609C178.755 11.42 178.182 11.56 177.889 11.84C177.595 12.1067 177.449 12.44 177.449 12.84C177.449 13.2933 177.629 13.6533 177.989 13.92C178.349 14.1867 178.849 14.32 179.489 14.32C180.102 14.32 180.649 14.18 181.129 13.9C181.622 13.62 181.975 13.2067 182.189 12.66L182.609 14.16C182.369 14.7867 181.935 15.2733 181.309 15.62C180.695 15.9667 179.915 16.14 178.969 16.14ZM187.497 16V5.32H189.877V8.26L189.597 7.4C189.917 6.68 190.417 6.13333 191.097 5.76C191.79 5.38667 192.65 5.2 193.677 5.2V7.58C193.57 7.55333 193.47 7.54 193.377 7.54C193.284 7.52667 193.19 7.52 193.097 7.52C192.15 7.52 191.397 7.8 190.837 8.36C190.277 8.90667 189.997 9.72667 189.997 10.82V16H187.497ZM195.398 16V5.32H197.898V16H195.398ZM196.658 3.56C196.191 3.56 195.804 3.41333 195.498 3.12C195.204 2.82667 195.058 2.47333 195.058 2.06C195.058 1.63333 195.204 1.28 195.498 0.999999C195.804 0.706666 196.191 0.56 196.658 0.56C197.124 0.56 197.504 0.699999 197.798 0.979999C198.104 1.24667 198.258 1.58667 198.258 2C198.258 2.44 198.111 2.81333 197.818 3.12C197.524 3.41333 197.138 3.56 196.658 3.56ZM205.799 16.14C204.612 16.14 203.572 15.9067 202.679 15.44C201.799 14.96 201.112 14.3067 200.619 13.48C200.139 12.6533 199.899 11.7133 199.899 10.66C199.899 9.59333 200.132 8.65333 200.599 7.84C201.079 7.01333 201.732 6.36667 202.559 5.9C203.399 5.43333 204.352 5.2 205.419 5.2C206.459 5.2 207.386 5.42667 208.199 5.88C209.012 6.33333 209.652 6.97333 210.119 7.8C210.586 8.62667 210.819 9.6 210.819 10.72C210.819 10.8267 210.812 10.9467 210.799 11.08C210.799 11.2133 210.792 11.34 210.779 11.46H201.879V9.8H209.459L208.479 10.32C208.492 9.70667 208.366 9.16667 208.099 8.7C207.832 8.23333 207.466 7.86667 206.999 7.6C206.546 7.33333 206.019 7.2 205.419 7.2C204.806 7.2 204.266 7.33333 203.799 7.6C203.346 7.86667 202.986 8.24 202.719 8.72C202.466 9.18667 202.339 9.74 202.339 10.38V10.78C202.339 11.42 202.486 11.9867 202.779 12.48C203.072 12.9733 203.486 13.3533 204.019 13.62C204.552 13.8867 205.166 14.02 205.859 14.02C206.459 14.02 206.999 13.9267 207.479 13.74C207.959 13.5533 208.386 13.26 208.759 12.86L210.099 14.4C209.619 14.96 209.012 15.3933 208.279 15.7C207.559 15.9933 206.732 16.14 205.799 16.14ZM216.12 16.14C215.227 16.14 214.367 16.0267 213.54 15.8C212.727 15.56 212.08 15.2733 211.6 14.94L212.56 13.04C213.04 13.3467 213.614 13.6 214.28 13.8C214.947 14 215.614 14.1 216.28 14.1C217.067 14.1 217.634 13.9933 217.98 13.78C218.34 13.5667 218.52 13.28 218.52 12.92C218.52 12.6267 218.4 12.4067 218.16 12.26C217.92 12.1 217.607 11.98 217.22 11.9C216.834 11.82 216.4 11.7467 215.92 11.68C215.454 11.6133 214.98 11.5267 214.5 11.42C214.034 11.3 213.607 11.1333 213.22 10.92C212.834 10.6933 212.52 10.3933 212.28 10.02C212.04 9.64667 211.92 9.15333 211.92 8.54C211.92 7.86 212.114 7.27333 212.5 6.78C212.887 6.27333 213.427 5.88667 214.12 5.62C214.827 5.34 215.66 5.2 216.62 5.2C217.34 5.2 218.067 5.28 218.8 5.44C219.534 5.6 220.14 5.82667 220.62 6.12L219.66 8.02C219.154 7.71333 218.64 7.50667 218.12 7.4C217.614 7.28 217.107 7.22 216.6 7.22C215.84 7.22 215.274 7.33333 214.9 7.56C214.54 7.78667 214.36 8.07333 214.36 8.42C214.36 8.74 214.48 8.98 214.72 9.14C214.96 9.3 215.274 9.42667 215.66 9.52C216.047 9.61333 216.474 9.69333 216.94 9.76C217.42 9.81333 217.894 9.9 218.36 10.02C218.827 10.14 219.254 10.3067 219.64 10.52C220.04 10.72 220.36 11.0067 220.6 11.38C220.84 11.7533 220.96 12.24 220.96 12.84C220.96 13.5067 220.76 14.0867 220.36 14.58C219.974 15.0733 219.42 15.46 218.7 15.74C217.98 16.0067 217.12 16.14 216.12 16.14Z" fill="black"/>
</svg>
