<svg width="333" height="20" viewBox="0 0 333 20" fill="none" xmlns="http://www.w3.org/2000/svg">
<path d="M7.02 16L0.9 2H3.72L9.18 14.66H7.56L13.08 2H15.68L9.58 16H7.02ZM16.615 16V5.32H19.115V16H16.615ZM17.875 3.56C17.4083 3.56 17.0217 3.41333 16.715 3.12C16.4217 2.82667 16.275 2.47333 16.275 2.06C16.275 1.63333 16.4217 1.28 16.715 0.999999C17.0217 0.706666 17.4083 0.56 17.875 0.56C18.3417 0.56 18.7217 0.699999 19.015 0.979999C19.3217 1.24667 19.475 1.58667 19.475 2C19.475 2.44 19.3283 2.81333 19.035 3.12C18.7417 3.41333 18.355 3.56 17.875 3.56ZM25.2963 16.14C24.4029 16.14 23.5429 16.0267 22.7163 15.8C21.9029 15.56 21.2563 15.2733 20.7763 14.94L21.7363 13.04C22.2163 13.3467 22.7896 13.6 23.4563 13.8C24.1229 14 24.7896 14.1 25.4563 14.1C26.2429 14.1 26.8096 13.9933 27.1563 13.78C27.5163 13.5667 27.6963 13.28 27.6963 12.92C27.6963 12.6267 27.5763 12.4067 27.3363 12.26C27.0963 12.1 26.7829 11.98 26.3963 11.9C26.0096 11.82 25.5763 11.7467 25.0963 11.68C24.6296 11.6133 24.1563 11.5267 23.6763 11.42C23.2096 11.3 22.7829 11.1333 22.3963 10.92C22.0096 10.6933 21.6963 10.3933 21.4563 10.02C21.2163 9.64667 21.0963 9.15333 21.0963 8.54C21.0963 7.86 21.2896 7.27333 21.6763 6.78C22.0629 6.27333 22.6029 5.88667 23.2963 5.62C24.0029 5.34 24.8363 5.2 25.7963 5.2C26.5163 5.2 27.2429 5.28 27.9763 5.44C28.7096 5.6 29.3163 5.82667 29.7963 6.12L28.8363 8.02C28.3296 7.71333 27.8163 7.50667 27.2963 7.4C26.7896 7.28 26.2829 7.22 25.7763 7.22C25.0163 7.22 24.4496 7.33333 24.0763 7.56C23.7163 7.78667 23.5363 8.07333 23.5363 8.42C23.5363 8.74 23.6563 8.98 23.8963 9.14C24.1363 9.3 24.4496 9.42667 24.8363 9.52C25.2229 9.61333 25.6496 9.69333 26.1163 9.76C26.5963 9.81333 27.0696 9.9 27.5363 10.02C28.0029 10.14 28.4296 10.3067 28.8163 10.52C29.2163 10.72 29.5363 11.0067 29.7763 11.38C30.0163 11.7533 30.1363 12.24 30.1363 12.84C30.1363 13.5067 29.9363 14.0867 29.5363 14.58C29.1496 15.0733 28.5963 15.46 27.8763 15.74C27.1563 16.0067 26.2963 16.14 25.2963 16.14ZM38.4692 16V13.84L38.3292 13.38V9.6C38.3292 8.86667 38.1092 8.3 37.6692 7.9C37.2292 7.48667 36.5626 7.28 35.6692 7.28C35.0692 7.28 34.4759 7.37333 33.8892 7.56C33.3159 7.74667 32.8292 8.00667 32.4292 8.34L31.4492 6.52C32.0226 6.08 32.7026 5.75333 33.4892 5.54C34.2892 5.31333 35.1159 5.2 35.9692 5.2C37.5159 5.2 38.7092 5.57333 39.5492 6.32C40.4026 7.05333 40.8292 8.19333 40.8292 9.74V16H38.4692ZM35.1092 16.14C34.3092 16.14 33.6092 16.0067 33.0092 15.74C32.4092 15.46 31.9426 15.08 31.6092 14.6C31.2892 14.1067 31.1292 13.5533 31.1292 12.94C31.1292 12.34 31.2692 11.8 31.5492 11.32C31.8426 10.84 32.3159 10.46 32.9692 10.18C33.6226 9.9 34.4892 9.76 35.5692 9.76H38.6692V11.42H35.7492C34.8959 11.42 34.3226 11.56 34.0292 11.84C33.7359 12.1067 33.5892 12.44 33.5892 12.84C33.5892 13.2933 33.7692 13.6533 34.1292 13.92C34.4892 14.1867 34.9892 14.32 35.6292 14.32C36.2426 14.32 36.7892 14.18 37.2692 13.9C37.7626 13.62 38.1159 13.2067 38.3292 12.66L38.7492 14.16C38.5092 14.7867 38.0759 15.2733 37.4492 15.62C36.8359 15.9667 36.0559 16.14 35.1092 16.14ZM53.345 16.2C52.2517 16.2 51.205 16.0467 50.205 15.74C49.205 15.42 48.4117 15.0133 47.825 14.52L48.725 12.5C49.285 12.94 49.9783 13.3067 50.805 13.6C51.6317 13.8933 52.4783 14.04 53.345 14.04C54.0783 14.04 54.6717 13.96 55.125 13.8C55.5783 13.64 55.9117 13.4267 56.125 13.16C56.3383 12.88 56.445 12.5667 56.445 12.22C56.445 11.7933 56.2917 11.4533 55.985 11.2C55.6783 10.9333 55.2783 10.7267 54.785 10.58C54.305 10.42 53.765 10.2733 53.165 10.14C52.5783 10.0067 51.985 9.85333 51.385 9.68C50.7983 9.49333 50.2583 9.26 49.765 8.98C49.285 8.68667 48.8917 8.3 48.585 7.82C48.2783 7.34 48.125 6.72667 48.125 5.98C48.125 5.22 48.325 4.52667 48.725 3.9C49.1383 3.26 49.7583 2.75333 50.585 2.38C51.425 1.99333 52.485 1.8 53.765 1.8C54.605 1.8 55.4383 1.90667 56.265 2.12C57.0917 2.33333 57.8117 2.64 58.425 3.04L57.605 5.06C56.9783 4.68667 56.3317 4.41333 55.665 4.24C54.9983 4.05333 54.3583 3.96 53.745 3.96C53.025 3.96 52.4383 4.04667 51.985 4.22C51.545 4.39333 51.2183 4.62 51.005 4.9C50.805 5.18 50.705 5.5 50.705 5.86C50.705 6.28667 50.8517 6.63333 51.145 6.9C51.4517 7.15333 51.845 7.35333 52.325 7.5C52.8183 7.64667 53.365 7.79333 53.965 7.94C54.565 8.07333 55.1583 8.22667 55.745 8.4C56.345 8.57333 56.885 8.8 57.365 9.08C57.8583 9.36 58.2517 9.74 58.545 10.22C58.8517 10.7 59.005 11.3067 59.005 12.04C59.005 12.7867 58.7983 13.48 58.385 14.12C57.985 14.7467 57.365 15.2533 56.525 15.64C55.685 16.0133 54.625 16.2 53.345 16.2ZM65.4631 16.14C64.5565 16.14 63.7565 15.9733 63.0631 15.64C62.3698 15.2933 61.8298 14.7733 61.4431 14.08C61.0565 13.3733 60.8631 12.4867 60.8631 11.42V5.32H63.3631V11.08C63.3631 12.04 63.5765 12.76 64.0031 13.24C64.4431 13.7067 65.0631 13.94 65.8631 13.94C66.4498 13.94 66.9565 13.82 67.3831 13.58C67.8231 13.34 68.1631 12.98 68.4031 12.5C68.6565 12.02 68.7831 11.4267 68.7831 10.72V5.32H71.2831V16H68.9031V13.12L69.3231 14C68.9631 14.6933 68.4365 15.2267 67.7431 15.6C67.0498 15.96 66.2898 16.14 65.4631 16.14ZM80.0764 16.14C79.2097 16.14 78.4164 15.94 77.6964 15.54C76.9897 15.14 76.4231 14.54 75.9964 13.74C75.5831 12.9267 75.3764 11.9 75.3764 10.66C75.3764 9.40667 75.5764 8.38 75.9764 7.58C76.3897 6.78 76.9497 6.18667 77.6564 5.8C78.3631 5.4 79.1697 5.2 80.0764 5.2C81.1297 5.2 82.0564 5.42667 82.8564 5.88C83.6697 6.33333 84.3097 6.96667 84.7764 7.78C85.2564 8.59333 85.4964 9.55333 85.4964 10.66C85.4964 11.7667 85.2564 12.7333 84.7764 13.56C84.3097 14.3733 83.6697 15.0067 82.8564 15.46C82.0564 15.9133 81.1297 16.14 80.0764 16.14ZM74.1564 19.88V5.32H76.5364V7.84L76.4564 10.68L76.6564 13.52V19.88H74.1564ZM79.7964 14C80.3964 14 80.9297 13.8667 81.3964 13.6C81.8764 13.3333 82.2564 12.9467 82.5364 12.44C82.8164 11.9333 82.9564 11.34 82.9564 10.66C82.9564 9.96667 82.8164 9.37333 82.5364 8.88C82.2564 8.37333 81.8764 7.98667 81.3964 7.72C80.9297 7.45333 80.3964 7.32 79.7964 7.32C79.1964 7.32 78.6564 7.45333 78.1764 7.72C77.6964 7.98667 77.3164 8.37333 77.0364 8.88C76.7564 9.37333 76.6164 9.96667 76.6164 10.66C76.6164 11.34 76.7564 11.9333 77.0364 12.44C77.3164 12.9467 77.6964 13.3333 78.1764 13.6C78.6564 13.8667 79.1964 14 79.7964 14ZM93.3873 16.14C92.5207 16.14 91.7273 15.94 91.0073 15.54C90.3007 15.14 89.734 14.54 89.3073 13.74C88.894 12.9267 88.6873 11.9 88.6873 10.66C88.6873 9.40667 88.8873 8.38 89.2873 7.58C89.7007 6.78 90.2607 6.18667 90.9673 5.8C91.674 5.4 92.4807 5.2 93.3873 5.2C94.4407 5.2 95.3673 5.42667 96.1673 5.88C96.9807 6.33333 97.6207 6.96667 98.0873 7.78C98.5673 8.59333 98.8073 9.55333 98.8073 10.66C98.8073 11.7667 98.5673 12.7333 98.0873 13.56C97.6207 14.3733 96.9807 15.0067 96.1673 15.46C95.3673 15.9133 94.4407 16.14 93.3873 16.14ZM87.4673 19.88V5.32H89.8473V7.84L89.7673 10.68L89.9673 13.52V19.88H87.4673ZM93.1073 14C93.7073 14 94.2407 13.8667 94.7073 13.6C95.1873 13.3333 95.5673 12.9467 95.8473 12.44C96.1273 11.9333 96.2673 11.34 96.2673 10.66C96.2673 9.96667 96.1273 9.37333 95.8473 8.88C95.5673 8.37333 95.1873 7.98667 94.7073 7.72C94.2407 7.45333 93.7073 7.32 93.1073 7.32C92.5073 7.32 91.9673 7.45333 91.4873 7.72C91.0073 7.98667 90.6273 8.37333 90.3473 8.88C90.0673 9.37333 89.9273 9.96667 89.9273 10.66C89.9273 11.34 90.0673 11.9333 90.3473 12.44C90.6273 12.9467 91.0073 13.3333 91.4873 13.6C91.9673 13.8667 92.5073 14 93.1073 14ZM105.578 16.14C104.485 16.14 103.512 15.9067 102.658 15.44C101.805 14.96 101.132 14.3067 100.638 13.48C100.145 12.6533 99.8983 11.7133 99.8983 10.66C99.8983 9.59333 100.145 8.65333 100.638 7.84C101.132 7.01333 101.805 6.36667 102.658 5.9C103.512 5.43333 104.485 5.2 105.578 5.2C106.685 5.2 107.665 5.43333 108.518 5.9C109.385 6.36667 110.058 7.00667 110.538 7.82C111.032 8.63333 111.278 9.58 111.278 10.66C111.278 11.7133 111.032 12.6533 110.538 13.48C110.058 14.3067 109.385 14.96 108.518 15.44C107.665 15.9067 106.685 16.14 105.578 16.14ZM105.578 14C106.192 14 106.738 13.8667 107.218 13.6C107.698 13.3333 108.072 12.9467 108.338 12.44C108.618 11.9333 108.758 11.34 108.758 10.66C108.758 9.96667 108.618 9.37333 108.338 8.88C108.072 8.37333 107.698 7.98667 107.218 7.72C106.738 7.45333 106.198 7.32 105.598 7.32C104.985 7.32 104.438 7.45333 103.958 7.72C103.492 7.98667 103.118 8.37333 102.838 8.88C102.558 9.37333 102.418 9.96667 102.418 10.66C102.418 11.34 102.558 11.9333 102.838 12.44C103.118 12.9467 103.492 13.3333 103.958 13.6C104.438 13.8667 104.978 14 105.578 14ZM113.269 16V5.32H115.649V8.26L115.369 7.4C115.689 6.68 116.189 6.13333 116.869 5.76C117.562 5.38667 118.422 5.2 119.449 5.2V7.58C119.342 7.55333 119.242 7.54 119.149 7.54C119.056 7.52667 118.962 7.52 118.869 7.52C117.922 7.52 117.169 7.8 116.609 8.36C116.049 8.90667 115.769 9.72667 115.769 10.82V16H113.269ZM125.58 16.14C124.407 16.14 123.5 15.84 122.86 15.24C122.22 14.6267 121.9 13.7267 121.9 12.54V2.96H124.4V12.48C124.4 12.9867 124.527 13.38 124.78 13.66C125.047 13.94 125.414 14.08 125.88 14.08C126.44 14.08 126.907 13.9333 127.28 13.64L127.98 15.42C127.687 15.66 127.327 15.84 126.9 15.96C126.474 16.08 126.034 16.14 125.58 16.14ZM120.14 7.4V5.4H127.26V7.4H120.14ZM139.044 16.2C138.071 16.2 137.198 16.04 136.424 15.72C135.651 15.4 135.044 14.96 134.604 14.4C134.164 13.84 133.944 13.1933 133.944 12.46C133.944 11.7933 134.091 11.1933 134.384 10.66C134.678 10.1267 135.144 9.62 135.784 9.14C136.424 8.64667 137.244 8.15333 138.244 7.66C139.031 7.27333 139.644 6.93333 140.084 6.64C140.538 6.34667 140.851 6.06667 141.024 5.8C141.211 5.53333 141.304 5.25333 141.304 4.96C141.304 4.56 141.164 4.24 140.884 4C140.604 3.74667 140.204 3.62 139.684 3.62C139.124 3.62 138.684 3.76 138.364 4.04C138.058 4.30667 137.904 4.66 137.904 5.1C137.904 5.32667 137.944 5.54667 138.024 5.76C138.118 5.97333 138.278 6.21333 138.504 6.48C138.731 6.74667 139.058 7.08667 139.484 7.5L146.884 14.6L145.504 16.22L137.504 8.54C137.051 8.1 136.684 7.69333 136.404 7.32C136.124 6.94667 135.924 6.58667 135.804 6.24C135.684 5.88 135.624 5.51333 135.624 5.14C135.624 4.48667 135.791 3.91333 136.124 3.42C136.458 2.91333 136.931 2.52667 137.544 2.26C138.158 1.98 138.871 1.84 139.684 1.84C140.444 1.84 141.098 1.96667 141.644 2.22C142.204 2.46 142.638 2.81333 142.944 3.28C143.264 3.73333 143.424 4.28 143.424 4.92C143.424 5.48 143.284 6 143.004 6.48C142.724 6.94667 142.284 7.39333 141.684 7.82C141.098 8.24667 140.311 8.69333 139.324 9.16C138.591 9.52 138.011 9.86 137.584 10.18C137.158 10.5 136.851 10.82 136.664 11.14C136.478 11.46 136.384 11.8133 136.384 12.2C136.384 12.5867 136.498 12.9267 136.724 13.22C136.964 13.5133 137.298 13.7467 137.724 13.92C138.151 14.08 138.651 14.16 139.224 14.16C140.078 14.16 140.851 13.9733 141.544 13.6C142.251 13.2133 142.844 12.64 143.324 11.88C143.804 11.12 144.151 10.18 144.364 9.06L146.384 9.72C146.104 11.0667 145.618 12.2267 144.924 13.2C144.244 14.16 143.404 14.9 142.404 15.42C141.404 15.94 140.284 16.2 139.044 16.2ZM156.693 16V4.2H152.053V2H163.933V4.2H159.293V16H156.693ZM164.99 16V5.32H167.37V8.26L167.09 7.4C167.41 6.68 167.91 6.13333 168.59 5.76C169.283 5.38667 170.143 5.2 171.17 5.2V7.58C171.063 7.55333 170.963 7.54 170.87 7.54C170.777 7.52667 170.683 7.52 170.59 7.52C169.643 7.52 168.89 7.8 168.33 8.36C167.77 8.90667 167.49 9.72667 167.49 10.82V16H164.99ZM178.709 16V13.84L178.569 13.38V9.6C178.569 8.86667 178.349 8.3 177.909 7.9C177.469 7.48667 176.802 7.28 175.909 7.28C175.309 7.28 174.716 7.37333 174.129 7.56C173.556 7.74667 173.069 8.00667 172.669 8.34L171.689 6.52C172.262 6.08 172.942 5.75333 173.729 5.54C174.529 5.31333 175.356 5.2 176.209 5.2C177.756 5.2 178.949 5.57333 179.789 6.32C180.642 7.05333 181.069 8.19333 181.069 9.74V16H178.709ZM175.349 16.14C174.549 16.14 173.849 16.0067 173.249 15.74C172.649 15.46 172.182 15.08 171.849 14.6C171.529 14.1067 171.369 13.5533 171.369 12.94C171.369 12.34 171.509 11.8 171.789 11.32C172.082 10.84 172.556 10.46 173.209 10.18C173.862 9.9 174.729 9.76 175.809 9.76H178.909V11.42H175.989C175.136 11.42 174.562 11.56 174.269 11.84C173.976 12.1067 173.829 12.44 173.829 12.84C173.829 13.2933 174.009 13.6533 174.369 13.92C174.729 14.1867 175.229 14.32 175.869 14.32C176.482 14.32 177.029 14.18 177.509 13.9C178.002 13.62 178.356 13.2067 178.569 12.66L178.989 14.16C178.749 14.7867 178.316 15.2733 177.689 15.62C177.076 15.9667 176.296 16.14 175.349 16.14ZM186.522 16L181.942 5.32H184.542L188.482 14.74H187.202L191.282 5.32H193.682L189.102 16H186.522ZM199.572 16.14C198.385 16.14 197.345 15.9067 196.452 15.44C195.572 14.96 194.885 14.3067 194.392 13.48C193.912 12.6533 193.672 11.7133 193.672 10.66C193.672 9.59333 193.905 8.65333 194.372 7.84C194.852 7.01333 195.505 6.36667 196.332 5.9C197.172 5.43333 198.125 5.2 199.192 5.2C200.232 5.2 201.158 5.42667 201.972 5.88C202.785 6.33333 203.425 6.97333 203.892 7.8C204.358 8.62667 204.592 9.6 204.592 10.72C204.592 10.8267 204.585 10.9467 204.572 11.08C204.572 11.2133 204.565 11.34 204.552 11.46H195.652V9.8H203.232L202.252 10.32C202.265 9.70667 202.138 9.16667 201.872 8.7C201.605 8.23333 201.238 7.86667 200.772 7.6C200.318 7.33333 199.792 7.2 199.192 7.2C198.578 7.2 198.038 7.33333 197.572 7.6C197.118 7.86667 196.758 8.24 196.492 8.72C196.238 9.18667 196.112 9.74 196.112 10.38V10.78C196.112 11.42 196.258 11.9867 196.552 12.48C196.845 12.9733 197.258 13.3533 197.792 13.62C198.325 13.8867 198.938 14.02 199.632 14.02C200.232 14.02 200.772 13.9267 201.252 13.74C201.732 13.5533 202.158 13.26 202.532 12.86L203.872 14.4C203.392 14.96 202.785 15.3933 202.052 15.7C201.332 15.9933 200.505 16.14 199.572 16.14ZM206.593 16V1.16H209.093V16H206.593ZM217.342 16V2H223.462C224.982 2 226.315 2.29333 227.462 2.88C228.608 3.46667 229.502 4.28 230.142 5.32C230.782 6.36 231.102 7.58667 231.102 9C231.102 10.4 230.782 11.6267 230.142 12.68C229.502 13.72 228.608 14.5333 227.462 15.12C226.315 15.7067 224.982 16 223.462 16H217.342ZM219.942 13.8H223.342C224.395 13.8 225.302 13.6 226.062 13.2C226.835 12.8 227.428 12.24 227.842 11.52C228.268 10.8 228.482 9.96 228.482 9C228.482 8.02667 228.268 7.18667 227.842 6.48C227.428 5.76 226.835 5.2 226.062 4.8C225.302 4.4 224.395 4.2 223.342 4.2H219.942V13.8ZM238.025 16.14C236.932 16.14 235.958 15.9067 235.105 15.44C234.252 14.96 233.578 14.3067 233.085 13.48C232.592 12.6533 232.345 11.7133 232.345 10.66C232.345 9.59333 232.592 8.65333 233.085 7.84C233.578 7.01333 234.252 6.36667 235.105 5.9C235.958 5.43333 236.932 5.2 238.025 5.2C239.132 5.2 240.112 5.43333 240.965 5.9C241.832 6.36667 242.505 7.00667 242.985 7.82C243.478 8.63333 243.725 9.58 243.725 10.66C243.725 11.7133 243.478 12.6533 242.985 13.48C242.505 14.3067 241.832 14.96 240.965 15.44C240.112 15.9067 239.132 16.14 238.025 16.14ZM238.025 14C238.638 14 239.185 13.8667 239.665 13.6C240.145 13.3333 240.518 12.9467 240.785 12.44C241.065 11.9333 241.205 11.34 241.205 10.66C241.205 9.96667 241.065 9.37333 240.785 8.88C240.518 8.37333 240.145 7.98667 239.665 7.72C239.185 7.45333 238.645 7.32 238.045 7.32C237.432 7.32 236.885 7.45333 236.405 7.72C235.938 7.98667 235.565 8.37333 235.285 8.88C235.005 9.37333 234.865 9.96667 234.865 10.66C234.865 11.34 235.005 11.9333 235.285 12.44C235.565 12.9467 235.938 13.3333 236.405 13.6C236.885 13.8667 237.425 14 238.025 14ZM250.616 16.14C249.496 16.14 248.496 15.9067 247.616 15.44C246.749 14.96 246.069 14.3067 245.576 13.48C245.082 12.6533 244.836 11.7133 244.836 10.66C244.836 9.59333 245.082 8.65333 245.576 7.84C246.069 7.01333 246.749 6.36667 247.616 5.9C248.496 5.43333 249.496 5.2 250.616 5.2C251.656 5.2 252.569 5.41333 253.356 5.84C254.156 6.25333 254.762 6.86667 255.176 7.68L253.256 8.8C252.936 8.29333 252.542 7.92 252.076 7.68C251.622 7.44 251.129 7.32 250.596 7.32C249.982 7.32 249.429 7.45333 248.936 7.72C248.442 7.98667 248.056 8.37333 247.776 8.88C247.496 9.37333 247.356 9.96667 247.356 10.66C247.356 11.3533 247.496 11.9533 247.776 12.46C248.056 12.9533 248.442 13.3333 248.936 13.6C249.429 13.8667 249.982 14 250.596 14C251.129 14 251.622 13.88 252.076 13.64C252.542 13.4 252.936 13.0267 253.256 12.52L255.176 13.64C254.762 14.44 254.156 15.06 253.356 15.5C252.569 15.9267 251.656 16.14 250.616 16.14ZM261.457 16.14C260.55 16.14 259.75 15.9733 259.057 15.64C258.364 15.2933 257.824 14.7733 257.437 14.08C257.05 13.3733 256.857 12.4867 256.857 11.42V5.32H259.357V11.08C259.357 12.04 259.57 12.76 259.997 13.24C260.437 13.7067 261.057 13.94 261.857 13.94C262.444 13.94 262.95 13.82 263.377 13.58C263.817 13.34 264.157 12.98 264.397 12.5C264.65 12.02 264.777 11.4267 264.777 10.72V5.32H267.277V16H264.897V13.12L265.317 14C264.957 14.6933 264.43 15.2267 263.737 15.6C263.044 15.96 262.284 16.14 261.457 16.14ZM283.63 5.2C284.483 5.2 285.237 5.36667 285.89 5.7C286.557 6.03333 287.077 6.54667 287.45 7.24C287.823 7.92 288.01 8.8 288.01 9.88V16H285.51V10.2C285.51 9.25333 285.303 8.54667 284.89 8.08C284.477 7.61333 283.883 7.38 283.11 7.38C282.563 7.38 282.077 7.5 281.65 7.74C281.237 7.98 280.91 8.33333 280.67 8.8C280.443 9.26667 280.33 9.86 280.33 10.58V16H277.83V10.2C277.83 9.25333 277.623 8.54667 277.21 8.08C276.797 7.61333 276.203 7.38 275.43 7.38C274.883 7.38 274.397 7.5 273.97 7.74C273.557 7.98 273.23 8.33333 272.99 8.8C272.763 9.26667 272.65 9.86 272.65 10.58V16H270.15V5.32H272.53V8.16L272.11 7.32C272.47 6.62667 272.99 6.1 273.67 5.74C274.363 5.38 275.15 5.2 276.03 5.2C277.03 5.2 277.897 5.44667 278.63 5.94C279.377 6.43333 279.87 7.18 280.11 8.18L279.13 7.84C279.477 7.04 280.05 6.4 280.85 5.92C281.65 5.44 282.577 5.2 283.63 5.2ZM295.844 16.14C294.658 16.14 293.618 15.9067 292.724 15.44C291.844 14.96 291.158 14.3067 290.664 13.48C290.184 12.6533 289.944 11.7133 289.944 10.66C289.944 9.59333 290.178 8.65333 290.644 7.84C291.124 7.01333 291.778 6.36667 292.604 5.9C293.444 5.43333 294.398 5.2 295.464 5.2C296.504 5.2 297.431 5.42667 298.244 5.88C299.058 6.33333 299.698 6.97333 300.164 7.8C300.631 8.62667 300.864 9.6 300.864 10.72C300.864 10.8267 300.858 10.9467 300.844 11.08C300.844 11.2133 300.838 11.34 300.824 11.46H291.924V9.8H299.504L298.524 10.32C298.538 9.70667 298.411 9.16667 298.144 8.7C297.878 8.23333 297.511 7.86667 297.044 7.6C296.591 7.33333 296.064 7.2 295.464 7.2C294.851 7.2 294.311 7.33333 293.844 7.6C293.391 7.86667 293.031 8.24 292.764 8.72C292.511 9.18667 292.384 9.74 292.384 10.38V10.78C292.384 11.42 292.531 11.9867 292.824 12.48C293.118 12.9733 293.531 13.3533 294.064 13.62C294.598 13.8867 295.211 14.02 295.904 14.02C296.504 14.02 297.044 13.9267 297.524 13.74C298.004 13.5533 298.431 13.26 298.804 12.86L300.144 14.4C299.664 14.96 299.058 15.3933 298.324 15.7C297.604 15.9933 296.778 16.14 295.844 16.14ZM308.926 5.2C309.779 5.2 310.539 5.36667 311.206 5.7C311.886 6.03333 312.419 6.54667 312.806 7.24C313.192 7.92 313.386 8.8 313.386 9.88V16H310.886V10.2C310.886 9.25333 310.659 8.54667 310.206 8.08C309.766 7.61333 309.146 7.38 308.346 7.38C307.759 7.38 307.239 7.5 306.786 7.74C306.332 7.98 305.979 8.34 305.726 8.82C305.486 9.28667 305.366 9.88 305.366 10.6V16H302.866V5.32H305.246V8.2L304.826 7.32C305.199 6.64 305.739 6.12 306.446 5.76C307.166 5.38667 307.992 5.2 308.926 5.2ZM320.177 16.14C319.004 16.14 318.097 15.84 317.457 15.24C316.817 14.6267 316.497 13.7267 316.497 12.54V2.96H318.997V12.48C318.997 12.9867 319.124 13.38 319.377 13.66C319.644 13.94 320.011 14.08 320.477 14.08C321.037 14.08 321.504 13.9333 321.877 13.64L322.577 15.42C322.284 15.66 321.924 15.84 321.497 15.96C321.071 16.08 320.631 16.14 320.177 16.14ZM314.737 7.4V5.4H321.857V7.4H314.737ZM327.534 16.14C326.64 16.14 325.78 16.0267 324.954 15.8C324.14 15.56 323.494 15.2733 323.014 14.94L323.974 13.04C324.454 13.3467 325.027 13.6 325.694 13.8C326.36 14 327.027 14.1 327.694 14.1C328.48 14.1 329.047 13.9933 329.394 13.78C329.754 13.5667 329.934 13.28 329.934 12.92C329.934 12.6267 329.814 12.4067 329.574 12.26C329.334 12.1 329.02 11.98 328.634 11.9C328.247 11.82 327.814 11.7467 327.334 11.68C326.867 11.6133 326.394 11.5267 325.914 11.42C325.447 11.3 325.02 11.1333 324.634 10.92C324.247 10.6933 323.934 10.3933 323.694 10.02C323.454 9.64667 323.334 9.15333 323.334 8.54C323.334 7.86 323.527 7.27333 323.914 6.78C324.3 6.27333 324.84 5.88667 325.534 5.62C326.24 5.34 327.074 5.2 328.034 5.2C328.754 5.2 329.48 5.28 330.214 5.44C330.947 5.6 331.554 5.82667 332.034 6.12L331.074 8.02C330.567 7.71333 330.054 7.50667 329.534 7.4C329.027 7.28 328.52 7.22 328.014 7.22C327.254 7.22 326.687 7.33333 326.314 7.56C325.954 7.78667 325.774 8.07333 325.774 8.42C325.774 8.74 325.894 8.98 326.134 9.14C326.374 9.3 326.687 9.42667 327.074 9.52C327.46 9.61333 327.887 9.69333 328.354 9.76C328.834 9.81333 329.307 9.9 329.774 10.02C330.24 10.14 330.667 10.3067 331.054 10.52C331.454 10.72 331.774 11.0067 332.014 11.38C332.254 11.7533 332.374 12.24 332.374 12.84C332.374 13.5067 332.174 14.0867 331.774 14.58C331.387 15.0733 330.834 15.46 330.114 15.74C329.394 16.0067 328.534 16.14 327.534 16.14Z" fill="black"/>
</svg>
